<?xml version="1.0" encoding="UTF-8" standalone="no"?>
<svg
   width="24"
   height="24"
   fill-rule="evenodd"
   clip-rule="evenodd"
   version="1.1"
   id="svg1"
   sodipodi:docname="logo1.svg"
   xml:space="preserve"
   inkscape:version="1.3 (0e150ed6c4, 2023-07-21)"
   xmlns:inkscape="http://www.inkscape.org/namespaces/inkscape"
   xmlns:sodipodi="http://sodipodi.sourceforge.net/DTD/sodipodi-0.dtd"
   xmlns="http://www.w3.org/2000/svg"
   xmlns:svg="http://www.w3.org/2000/svg"><defs
     id="defs1"><clipPath
       clipPathUnits="userSpaceOnUse"
       id="clipPath2"><rect
         style="fill:none;stroke:#ffffff;stroke-width:18.8276;stroke-linecap:round;stroke-linejoin:round;paint-order:fill markers stroke"
         id="rect2"
         width="357.38931"
         height="414.21442"
         x="-373.7081"
         y="-168.79329" /></clipPath></defs><sodipodi:namedview
     id="namedview1"
     pagecolor="#ffffff"
     bordercolor="#000000"
     borderopacity="0.25"
     inkscape:showpageshadow="2"
     inkscape:pageopacity="0.0"
     inkscape:pagecheckerboard="0"
     inkscape:deskcolor="#d1d1d1"
     inkscape:zoom="26.713052"
     inkscape:cx="9.2651337"
     inkscape:cy="13.645015"
     inkscape:window-width="1920"
     inkscape:window-height="1166"
     inkscape:window-x="-11"
     inkscape:window-y="-11"
     inkscape:window-maximized="1"
     inkscape:current-layer="svg1" /><path
     id="path2"
     style="fill:#000000;stroke-width:0.247777"
     d="M 3.5763851,0.33446607 3.528296,4.2561821 C 3.44018,11.471872 3.461635,15.751668 3.589243,16.495987 c 0.3974852,2.318494 1.7354218,4.389396 3.700028,5.726398 1.3575904,0.923898 2.4902948,1.328523 4.356615,1.557766 0.644268,0.07914 1.739423,-0.03102 2.56588,-0.258234 2.897261,-0.796548 5.441014,-3.251829 6.378752,-6.157776 0.422708,-1.309931 0.429704,-1.434963 0.429948,-7.5379702 l 4.76e-4,-5.569499 -0.55279,-0.027546 c -0.303884,-0.015303 -3.11608,-0.011368 -6.249244,0.00883 l -5.6964526,0.036903 0.9408383,0.8652059 0.9408383,0.8652146 h 4.417084 4.417084 v 2.3570609 2.3565718 h -3.673841 -3.673841 l 0.733245,0.915864 0.732768,0.916363 2.757762,0.0044 c 2.568156,0.0044 2.760298,-0.0035 2.792043,-0.123948 0.01875,-0.07092 0.07353,-0.410715 0.12189,-0.755031 0.04835,-0.344307 0.114829,-0.692208 0.147601,-0.77322 0.03295,-0.08141 0.04964,1.005105 0.03762,2.430351 -0.02368,2.805614 -0.03079,2.864878 -0.477085,3.972374 -0.327017,0.811499 -0.880248,1.625138 -1.63266,2.400839 -1.032733,1.0647 -2.157099,1.747513 -3.461962,2.102271 -0.759965,0.206589 -2.221384,0.190621 -3.065344,-0.03347 C 9.8586637,21.585097 8.8341415,21.113541 8.210592,20.686691 7.2935951,20.05896 6.3818058,18.994259 5.8875398,17.973512 5.2742963,16.707059 5.1658424,15.88339 5.2347619,13.01296 l 0.050468,-2.088501 2.5387402,2.622185 c 2.9022509,2.997334 2.4438699,2.704883 3.9176209,2.501183 L 12.62196,15.926327 9.6746987,12.880643 6.7274359,9.8354488 h 3.8314411 3.831441 V 8.1783265 6.5212044 h -0.852755 -0.85323 l -0.01999,0.7545323 -0.02048,0.7550308 -3.6543196,0.019151 -3.6547959,0.019151 0.045711,0.3123364 c 0.025166,0.1717907 0.084965,0.5516454 0.1328412,0.8445509 0.092914,0.568453 0.085147,0.609431 -0.1176053,0.609431 -0.1250713,0 -0.1304601,-0.1656085 -0.1304601,-3.83022 V 2.1754291 h 3.7071707 3.70717 V 2.875368 3.5748171 h 0.891321 0.890844 V 1.9545804 0.33434364 H 9.0190655 Z" /></svg>
